<svg width="200" height="200" viewBox="0 0 200 200">
<style>
text {
font-size: 24px;
font-family: sans-serif;
text-anchor: middle;
}
</style>
<g transform="translate(100, 100)">
<polygon points="0,-50 25,-25 50,0 25,25 0,50 -25,25 -50,0 -25,-25" stroke="black" stroke-width="2" fill="none"/>
<circle cx="-20" cy="-30" r="3" fill="black"/>
<circle cx="20" cy="-30" r="3" fill="black"/>
<circle cx="-40" cy="0" r="3" fill="black"/>
<circle cx="40" cy="0" r="3" fill="black"/>
<circle cx="-20" cy="30" r="3" fill="black"/>
<circle cx="20" cy="30" r="3" fill="black"/>
<line x1="-20" y1="-30" x2="20" y2="-30" stroke="black"/>
<line x1="-20" y1="-30" x2="-40" y2="0" stroke="black"/>
<line x1="20" y1="-30" x2="40" y2="0" stroke="black"/>
<line x1="-40" y1="0" x2="-20" y2="30" stroke="black"/>
<line x1="40" y1="0" x2="20" y2="30" stroke="black"/>
<line x1="-20" y1="30" x2="20" y2="30" stroke="black"/>
</g>
<text x="100" y="160">Lumen League</text>
</svg>